<svg width="36" height="35" viewBox="0 0 36 35" fill="none" xmlns="http://www.w3.org/2000/svg">
<g id="Chess Pieces">
<path id="Union" d="M9.27344 5.57388C9.27344 6.04008 9.35099 6.48863 9.49431 6.90817L8.53022 7.34549C7.73097 6.54435 6.60926 6.04606 5.36719 6.04606C2.94015 6.04606 0.972656 7.94865 0.972656 10.2956C0.972656 12.3877 2.53603 14.1267 4.59468 14.4797L6.91016 22.1566C6.95849 22.3168 7.02858 22.4701 7.11859 22.6126L8.45312 24.7243L8.44492 24.7257C7.51198 24.8853 6.83203 25.6693 6.83203 26.5855V30.1268C6.83203 31.1699 7.70647 32.0155 8.78516 32.0155L27.3774 32.0155C27.8954 32.0155 28.3922 31.8165 28.7585 31.4623C29.1248 31.1081 29.3305 30.6277 29.3305 30.1268V26.5855C29.3305 25.6683 28.6491 24.8837 27.7148 24.7252L27.6755 24.7186L29.0064 22.6126C29.0964 22.4701 29.1665 22.3168 29.2148 22.1566L31.5303 14.4797C33.589 14.1267 35.1523 12.3877 35.1523 10.2956C35.1523 7.94865 33.1848 6.04606 30.7578 6.04606C29.5142 6.04606 28.3912 6.54561 27.5918 7.34852L26.6294 6.91197C26.7735 6.49134 26.8516 6.04149 26.8516 5.57388C26.8516 3.22693 24.8841 1.32434 22.457 1.32434C20.03 1.32434 18.0625 3.22693 18.0625 5.57388C18.0625 3.22693 16.095 1.32434 13.668 1.32434C11.2409 1.32434 9.27344 3.22693 9.27344 5.57388Z" fill="#F4F7FA"/>
<path id="Union_2" d="M14.5443 7.7781C15.4597 7.43754 16.1094 6.57908 16.1094 5.5739C16.1094 4.27004 15.0163 3.21304 13.668 3.21304C12.3196 3.21304 11.2266 4.27004 11.2266 5.5739C11.2266 6.77881 12.16 7.7729 13.3658 7.91685L12.277 16.4338L7.02842 12.0257C7.50833 11.5946 7.80859 10.979 7.80859 10.2956C7.80859 8.99176 6.71554 7.93476 5.36719 7.93476C4.01884 7.93476 2.92578 8.99176 2.92578 10.2956C2.92578 11.5995 4.01884 12.6565 5.36719 12.6565C5.60455 12.6565 5.83399 12.6237 6.05096 12.5626L8.78516 21.6277L11.6126 26.1018L8.78516 26.5855V30.1268L27.3774 30.1268V26.5855L24.5136 26.0998L27.3398 21.6277L30.074 12.5626C30.291 12.6237 30.5205 12.6565 30.7578 12.6565C32.1062 12.6565 33.1992 11.5995 33.1992 10.2956C33.1992 8.99176 32.1062 7.93476 30.7578 7.93476C29.4095 7.93476 28.3164 8.99176 28.3164 10.2956C28.3164 10.979 28.6167 11.5946 29.0966 12.0257L23.848 16.4338L22.7592 7.91685C23.965 7.7729 24.8984 6.77881 24.8984 5.5739C24.8984 4.27004 23.8054 3.21304 22.457 3.21304C21.1087 3.21304 20.0156 4.27004 20.0156 5.5739C20.0156 6.57908 20.6653 7.43754 21.5807 7.7781L18.0625 15.4895L14.5443 7.7781Z" fill="#34364C"/>
</g>
</svg>
