<svg width="37" height="35" viewBox="0 0 37 35" fill="none" xmlns="http://www.w3.org/2000/svg">
<g id="Chess Pieces">
<path id="Stroke" d="M13.5547 3.21304C13.9104 3.21304 14.244 3.30502 14.5313 3.46572C14.8185 3.30502 15.1521 3.21304 15.5078 3.21304H20.8789C21.2347 3.21304 21.5682 3.30502 21.8555 3.46572C22.1428 3.30502 22.4763 3.21304 22.832 3.21304H27.7148C28.7935 3.21304 29.668 4.05864 29.668 5.10173V9.35127C29.668 9.94575 29.3785 10.5055 28.8867 10.8622L25.873 13.048L26.7263 20.4748C26.9523 22.4411 27.8987 23.4387 29.2773 25.2162C29.5309 25.5432 29.668 25.9408 29.668 26.3495V30.1268C29.668 31.1699 28.7935 32.0155 27.7148 32.0155H8.67188C7.59319 32.0155 6.71875 31.1699 6.71875 30.1268V26.3495C6.71875 25.9408 6.85582 25.5432 7.10937 25.2162C8.48804 23.4387 9.43446 22.4411 9.66038 20.4748L10.5137 13.048L7.5 10.8622C7.00819 10.5055 6.71875 9.94575 6.71875 9.35127V5.10173C6.71875 4.05864 7.59319 3.21304 8.67188 3.21304H13.5547Z" fill="#F4F7FA"/>
<g id="Union">
<path d="M8.67188 5.10172H13.5547V7.93474H15.5078V5.10172H20.8789V7.93474H22.832V5.10172H27.7148V9.35126L23.8086 12.1843L24.7852 20.6834H11.6016L12.5781 12.1843L8.67188 9.35126V5.10172Z" fill="#34364C"/>
<path d="M11.6016 22.5721H24.7852L27.7148 26.3494V30.1268H8.67188V26.3494L11.6016 22.5721Z" fill="#34364C"/>
</g>
</g>
</svg>
