<svg width="36" height="35" viewBox="0 0 36 35" fill="none" xmlns="http://www.w3.org/2000/svg">
<g id="Chess Pieces">
<path id="Stroke" d="M14.6065 1.09156C15.2494 1.02165 15.8864 1.26414 16.3075 1.73908L20.2923 6.23343C24.8684 7.32698 27.5199 10.6591 28.9863 14.8188C30.4974 19.1051 30.8712 24.5467 30.8712 30.1268C30.8712 31.1699 29.9967 32.0155 28.9181 32.0155H10.7076C9.67068 32.0155 8.81451 31.232 8.75742 30.2308C8.70646 29.3374 8.91903 27.7872 9.56679 26.2037L9.57869 26.1748C7.73922 27.1296 5.69776 26.9009 4.18229 25.8575C2.34056 24.5894 1.31651 22.1072 2.4865 19.6558C3.33019 17.8882 4.23951 16.9521 4.9274 16.2441C5.56995 15.5829 5.83773 15.292 6.02716 14.5593C7.17572 10.1166 9.53863 7.55735 12.0762 6.38938C12.0395 5.88326 12.0693 5.39565 12.1335 4.95294C12.2933 3.85098 12.6912 2.83265 13.0967 2.08821C13.3982 1.53469 13.9636 1.16147 14.6065 1.09156Z" fill="#F4F7FA"/>
<path id="Union" fill-rule="evenodd" clip-rule="evenodd" d="M19.2356 7.94346L14.8246 2.96838C14.1861 4.1406 13.567 6.20946 14.457 7.70297C14.0251 7.74016 13.6122 7.81081 13.2929 7.93473C11.2558 8.72529 9.02047 10.7678 7.92184 15.0173C7.60372 16.2478 7.03115 16.8371 6.35064 17.5374C5.70873 18.198 4.97077 18.9575 4.25973 20.4473C2.79489 23.5164 6.74816 26.5855 9.63082 23.798C11.2515 22.2308 12.6681 21.5838 13.8575 21.0406C15.5693 20.2588 16.8103 19.692 17.5114 16.906C17.8449 18.2055 17.7115 21.2725 14.5096 23.1438C11.3078 25.0152 10.6407 28.9572 10.7074 30.1268H28.9179C28.9179 19.0228 27.3977 9.42906 19.2356 7.94346Z" fill="#34364C"/>
<ellipse id="eye" cx="13.7812" cy="13.6008" rx="1.46484" ry="1.41651" fill="#F4F7FA"/>
</g>
</svg>
