<svg width="36" height="35" viewBox="0 0 36 35" fill="none" xmlns="http://www.w3.org/2000/svg">
<g id="Chess Pieces">
<path id="Stroke" d="M13.458 8.82424C13.2618 8.30288 13.1544 7.74011 13.1544 7.15384C13.1544 4.45583 15.4162 2.26868 18.2063 2.26868C20.9963 2.26868 23.2581 4.45583 23.2581 7.15384C23.2581 7.94415 23.0628 8.6933 22.7166 9.35573C23.2148 9.38906 23.6989 9.60614 24.0519 9.99623C25.9697 12.1157 27.6479 15.1376 27.6479 18.6403C27.6479 21.1445 26.7564 23.0001 25.5517 24.3372L27.8398 24.7252C28.7741 24.8837 29.4555 25.6683 29.4555 26.5855V30.1268C29.4555 30.6277 29.2498 31.1081 28.8835 31.4623C28.5172 31.8165 28.0204 32.0155 27.5024 32.0155L8.91016 32.0155C7.83147 32.0155 6.95703 31.1699 6.95703 30.1268V26.5855C6.95703 25.6693 7.63698 24.8853 8.56992 24.7257L10.6339 24.3726C9.41278 23.0331 8.50639 21.167 8.50639 18.6403C8.50639 15.9075 9.60156 13.5276 10.886 11.7036C11.6934 10.5572 12.6075 9.58391 13.458 8.82424Z" fill="#F4F7FA"/>
<path id="Union" d="M19.1641 18.3906H17.2109C17.2109 14.9226 18.2987 11.4604 20.7051 8.92615C21.0822 8.4298 21.305 7.81698 21.305 7.15385C21.305 5.49894 19.9177 4.15738 18.2063 4.15738C16.4949 4.15738 15.1076 5.49894 15.1076 7.15385C15.1076 7.97034 15.4453 8.71055 15.993 9.25101C14.0573 10.5854 10.4595 14.1622 10.4595 18.6403C10.4595 23.1596 14.1236 24.9892 16.0458 25.3648L8.91016 26.5855V30.1268L27.5024 30.1268V26.5855L20.1975 25.3466C22.1415 24.9329 25.6948 23.0908 25.6948 18.6403C25.6948 15.7263 24.291 13.1286 22.582 11.24C20.7051 12.6565 19.1641 15.9617 19.1641 18.3906Z" fill="#34364C"/>
</g>
</svg>
