<svg width="37" height="35" viewBox="0 0 37 35" fill="none" xmlns="http://www.w3.org/2000/svg">
<g id="Chess Pieces">
<path id="Stroke" d="M12.1423 19.5996C11.9093 19.9072 11.6313 20.2276 11.3072 20.5571C10.1633 21.7201 8.76053 22.6769 7.85515 23.1772L7.70285 23.2614C7.09431 23.5976 6.71875 24.2234 6.71875 24.9012V29.4553C6.71875 30.4984 7.59319 31.344 8.67188 31.344H27.7148C28.7935 31.344 29.668 30.4984 29.668 29.4553V24.9012C29.668 24.2234 29.2924 23.5976 28.6839 23.2614L28.5316 23.1772C27.6262 22.6769 26.2234 21.7201 25.0796 20.5571C24.7554 20.2276 24.4774 19.9072 24.2444 19.5996C25.1016 19.4 25.7385 18.6536 25.7385 17.7634V14.689C25.7385 14.0753 25.4301 13.4999 24.9117 13.146L24.0821 12.5798C24.5608 11.6804 24.8317 10.6599 24.8317 9.57911C24.8317 5.95312 21.7919 3.01367 18.0422 3.01367C14.2925 3.01367 11.2528 5.95312 11.2528 9.57911C11.2528 10.7207 11.5549 11.7948 12.0847 12.7298L11.475 13.146C10.9566 13.4999 10.6483 14.0753 10.6483 14.689V17.7634C10.6483 18.6536 11.2851 19.4 12.1423 19.5996Z" fill="#F4F7FA"/>
<path id="Union" d="M22.8785 9.57909C22.8785 10.9355 22.2814 12.157 21.3275 13.0113L23.7853 14.689V17.7634H21.3792C21.4952 19.1885 22.4408 20.6147 23.6643 21.8587C24.9628 23.1789 26.525 24.2437 27.5625 24.817L27.7148 24.9012V29.4553H8.67188V24.9012L8.82418 24.817C9.86167 24.2437 11.4239 23.1789 12.7224 21.8587C13.9459 20.6147 14.8915 19.1885 15.0075 17.7634H12.6014V14.689L14.8905 13.1265C13.8591 12.2688 13.2059 10.9977 13.2059 9.57909C13.2059 6.9962 15.3712 4.90234 18.0422 4.90234C20.7132 4.90234 22.8785 6.9962 22.8785 9.57909Z" fill="#34364C"/>
</g>
</svg>
