<svg width="36" height="35" viewBox="0 0 36 35" fill="none" xmlns="http://www.w3.org/2000/svg">
<g id="Chess Pieces" clip-path="url(#clip0_509_13)">
<path id="Union" fill-rule="evenodd" clip-rule="evenodd" d="M15.0087 2.68187C15.0416 1.66224 15.9059 0.852173 16.9608 0.852173H19.8905C20.9454 0.852173 21.8097 1.66224 21.8427 2.68187L21.8599 3.21303H22.8202C23.8989 3.21303 24.7733 4.05862 24.7733 5.10172V6.24723C26.9023 5.78135 29.2002 6.09254 31.1506 7.66425C35.2025 10.9294 34.8297 17.7739 30.021 21.5176C28.8605 22.4211 27.9489 23.1701 27.3211 23.9418C27.1779 24.1179 27.0552 24.2882 26.9519 24.455L28.9313 24.7139C29.9 24.8406 30.6227 25.6403 30.6227 26.5855V30.1268C30.6227 31.1699 29.7482 32.0155 28.6695 32.0155H8.18179C7.10311 32.0155 6.22867 31.1699 6.22867 30.1268V26.5855C6.22867 25.6403 6.95133 24.8406 7.92002 24.7139L9.89945 24.455C9.79616 24.2882 9.67347 24.1179 9.53024 23.9418C8.90247 23.1701 7.99082 22.4211 6.83037 21.5176C2.02167 17.7739 1.64886 10.9294 5.7007 7.66425C7.65109 6.09254 9.94903 5.78135 12.078 6.24723V5.10172C12.078 4.05862 12.9525 3.21303 14.0311 3.21303H14.9915L15.0087 2.68187Z" fill="#F4F7FA"/>
<path id="Union_2" fill-rule="evenodd" clip-rule="evenodd" d="M16.961 2.74084H19.8907L19.967 5.1017H22.8204V7.93473H20.0585L20.1927 11.1422C20.2462 11.0812 20.3014 11.0214 20.3582 10.963C23.0257 8.22138 26.9808 6.76243 29.9004 9.11516C32.8301 11.476 32.8301 16.906 28.7963 20.0465C26.5113 21.8255 24.4646 23.5404 24.5654 26.0487L28.6697 26.5855V30.1268H8.18195V26.5855L12.2862 26.0487C12.3871 23.5404 10.3404 21.8254 8.05536 20.0465C4.02153 16.906 4.02153 11.476 6.95122 9.11516C9.87082 6.76243 13.8259 8.22138 16.4935 10.963C16.5503 11.0214 16.6054 11.0812 16.659 11.1422L16.7931 7.93473H14.0313V5.1017H16.8847L16.961 2.74084ZM14.2012 13.5881C15.9916 16.424 16.2286 19.739 16.2286 21.1807C15.3312 21.1822 11.9482 19.743 10.1571 17.3804C8.86763 15.6794 8.5314 13.1558 9.63676 12.176C10.7421 11.1963 13.0822 11.8157 14.2012 13.5881ZM22.6504 13.5881C20.8601 16.424 20.6231 19.739 20.6231 21.1807C21.5205 21.1822 24.9035 19.743 26.6946 17.3804C27.984 15.6794 28.3203 13.1558 27.2149 12.176C26.1095 11.1963 23.7694 11.8157 22.6504 13.5881Z" fill="#34364C"/>
</g>
<defs>
<clipPath id="clip0_509_13">
<rect width="35.1562" height="33.9964" fill="white" transform="translate(0.359375 0.852173)"/>
</clipPath>
</defs>
</svg>
