<svg width="36" height="35" viewBox="0 0 36 35" fill="none" xmlns="http://www.w3.org/2000/svg">
<g id="Chess Pieces" clip-path="url(#clip0_509_84)">
<path id="Union" fill-rule="evenodd" clip-rule="evenodd" d="M15.0087 1.98116C15.0416 0.961537 15.9059 0.15147 16.9608 0.15147H19.8905C20.9454 0.15147 21.8097 0.961537 21.8427 1.98116L21.8599 2.51233H22.8202C23.8989 2.51233 24.7733 3.35792 24.7733 4.40101V5.54653C26.9023 5.08064 29.2002 5.39184 31.1506 6.96354C35.2025 10.2287 34.8297 17.0732 30.021 20.8169C28.8605 21.7204 27.9489 22.4694 27.3211 23.2411C27.1779 23.4172 27.0552 23.5875 26.9519 23.7543L28.9313 24.0132C29.9 24.1399 30.6227 24.9396 30.6227 25.8848V29.4261C30.6227 30.4692 29.7482 31.3148 28.6695 31.3148H8.18179C7.10311 31.3148 6.22867 30.4692 6.22867 29.4261V25.8848C6.22867 24.9396 6.95133 24.1399 7.92002 24.0132L9.89945 23.7543C9.79616 23.5875 9.67347 23.4172 9.53024 23.2411C8.90247 22.4694 7.99082 21.7204 6.83037 20.8169C2.02167 17.0732 1.64886 10.2287 5.7007 6.96354C7.65109 5.39184 9.94903 5.08064 12.078 5.54653V4.40101C12.078 3.35792 12.9525 2.51233 14.0311 2.51233H14.9915L15.0087 1.98116Z" fill="#34364C"/>
<path id="Union_2" fill-rule="evenodd" clip-rule="evenodd" d="M16.961 2.04016H19.8907L19.967 4.40102H22.8204V7.23404H20.0585L20.1927 10.4415C20.2462 10.3805 20.3014 10.3207 20.3582 10.2623C23.0257 7.52069 26.9808 6.06174 29.9004 8.41447C32.8301 10.7753 32.8301 16.2053 28.7963 19.3458C26.5113 21.1248 24.4646 22.8397 24.5654 25.348L28.6697 25.8848V29.4261H8.18195V25.8848L12.2862 25.348C12.3871 22.8397 10.3404 21.1248 8.05536 19.3458C4.02153 16.2053 4.02153 10.7753 6.95122 8.41447C9.87082 6.06174 13.8259 7.52069 16.4935 10.2623C16.5503 10.3207 16.6054 10.3805 16.659 10.4415L16.7931 7.23404H14.0313V4.40102H16.8847L16.961 2.04016ZM14.2012 12.8874C15.9916 15.7233 16.2286 19.0383 16.2286 20.48C15.3312 20.4815 11.9482 19.0423 10.1571 16.6797C8.86763 14.9787 8.5314 12.4551 9.63676 11.4753C10.7421 10.4956 13.0822 11.115 14.2012 12.8874ZM22.6504 12.8874C20.8601 15.7233 20.6231 19.0383 20.6231 20.48C21.5205 20.4815 24.9035 19.0423 26.6946 16.6797C27.984 14.9787 28.3203 12.4551 27.2149 11.4753C26.1095 10.4956 23.7694 11.115 22.6504 12.8874Z" fill="#F4F7FA"/>
</g>
<defs>
<clipPath id="clip0_509_84">
<rect width="35.1562" height="33.9964" fill="white" transform="translate(0.359375 0.15147)"/>
</clipPath>
</defs>
</svg>
