<svg width="37" height="35" viewBox="0 0 37 35" fill="none" xmlns="http://www.w3.org/2000/svg">
<g id="Chess Pieces">
<path id="Stroke" d="M13.5547 2.51233C13.9104 2.51233 14.244 2.6043 14.5313 2.765C14.8185 2.6043 15.1521 2.51233 15.5078 2.51233H20.8789C21.2347 2.51233 21.5682 2.6043 21.8555 2.765C22.1428 2.6043 22.4763 2.51233 22.832 2.51233H27.7148C28.7935 2.51233 29.668 3.35792 29.668 4.40102V8.65056C29.668 9.24504 29.3785 9.80482 28.8867 10.1615L25.873 12.3472L26.7263 19.7741C26.9523 21.7404 27.8987 22.738 29.2773 24.5155C29.5309 24.8425 29.668 25.2401 29.668 25.6487V29.4261C29.668 30.4692 28.7935 31.3148 27.7148 31.3148H8.67188C7.59319 31.3148 6.71875 30.4692 6.71875 29.4261V25.6487C6.71875 25.2401 6.85582 24.8425 7.10937 24.5155C8.48804 22.738 9.43446 21.7404 9.66038 19.7741L10.5137 12.3472L7.5 10.1615C7.00819 9.80482 6.71875 9.24504 6.71875 8.65056V4.40102C6.71875 3.35792 7.59319 2.51233 8.67188 2.51233H13.5547Z" fill="#34364C"/>
<g id="Union">
<path d="M8.67188 4.40102H13.5547V7.23405H15.5078V4.40102H20.8789V7.23405H22.832V4.40102H27.7148V8.65056L23.8086 11.4836L24.7852 19.9827H11.6016L12.5781 11.4836L8.67188 8.65056V4.40102Z" fill="#F4F7FA"/>
<path d="M11.6016 21.8714H24.7852L27.7148 25.6487V29.4261H8.67188V25.6487L11.6016 21.8714Z" fill="#F4F7FA"/>
</g>
</g>
</svg>
