<svg width="36" height="35" viewBox="0 0 36 35" fill="none" xmlns="http://www.w3.org/2000/svg">
<g id="Chess Pieces">
<path id="Stroke" d="M11.7673 20.242C11.5343 20.5496 11.2563 20.8699 10.9322 21.1995C9.78834 22.3624 8.38553 23.3193 7.48015 23.8196L7.32785 23.9037C6.71931 24.24 6.34375 24.8658 6.34375 25.5435V30.0976C6.34375 31.1407 7.21819 31.9863 8.29688 31.9863H27.3398C28.4185 31.9863 29.293 31.1407 29.293 30.0976V25.5435C29.293 24.8658 28.9174 24.24 28.3089 23.9037L28.1566 23.8196C27.2512 23.3193 25.8484 22.3624 24.7046 21.1995C24.3804 20.8699 24.1024 20.5496 23.8694 20.242C24.7266 20.0423 25.3635 19.296 25.3635 18.4058V15.3313C25.3635 14.7177 25.0551 14.1422 24.5367 13.7883L23.7071 13.2221C24.1858 12.3228 24.4567 11.3022 24.4567 10.2214C24.4567 6.59546 21.4169 3.65601 17.6672 3.65601C13.9175 3.65601 10.8778 6.59546 10.8778 10.2214C10.8778 11.363 11.1799 12.4371 11.7097 13.3722L11.1 13.7883C10.5816 14.1422 10.2733 14.7177 10.2733 15.3313V18.4058C10.2733 19.296 10.9101 20.0423 11.7673 20.242Z" fill="#34364C"/>
<path id="Union" d="M22.5035 10.2214C22.5035 11.5778 21.9064 12.7994 20.9525 13.6536L23.4103 15.3313V18.4058H21.0042C21.1202 19.8308 22.0658 21.257 23.2893 22.5011C24.5878 23.8213 26.15 24.8861 27.1875 25.4594L27.3398 25.5435V30.0976H8.29688V25.5435L8.44918 25.4594C9.48667 24.8861 11.0489 23.8213 12.3474 22.5011C13.5709 21.257 14.5165 19.8308 14.6325 18.4058H12.2264V15.3313L14.5155 13.7688C13.4841 12.9111 12.8309 11.6401 12.8309 10.2214C12.8309 7.63855 14.9962 5.5447 17.6672 5.5447C20.3382 5.5447 22.5035 7.63855 22.5035 10.2214Z" fill="#F4F7FA"/>
</g>
</svg>
