<svg width="36" height="35" viewBox="0 0 36 35" fill="none" xmlns="http://www.w3.org/2000/svg">
<g id="Chess Pieces">
<path id="Stroke" d="M13.083 8.12355C12.8868 7.60219 12.7794 7.03942 12.7794 6.45314C12.7794 3.75514 15.0412 1.56799 17.8313 1.56799C20.6213 1.56799 22.8831 3.75514 22.8831 6.45314C22.8831 7.24345 22.6878 7.99261 22.3416 8.65504C22.8398 8.68837 23.3239 8.90545 23.6769 9.29554C25.5947 11.415 27.2729 14.4369 27.2729 17.9396C27.2729 20.4438 26.3814 22.2994 25.1767 23.6365L27.4648 24.0245C28.3991 24.183 29.0805 24.9676 29.0805 25.8848V29.4261C29.0805 29.927 28.8748 30.4074 28.5085 30.7616C28.1422 31.1158 27.6454 31.3148 27.1274 31.3148L8.53516 31.3148C7.45647 31.3148 6.58203 30.4692 6.58203 29.4261V25.8848C6.58203 24.9687 7.26198 24.1846 8.19492 24.025L10.2589 23.6719C9.03778 22.3324 8.13139 20.4663 8.13139 17.9396C8.13139 15.2068 9.22656 12.8269 10.511 11.0029C11.3184 9.85651 12.2325 8.88322 13.083 8.12355Z" fill="#34364C"/>
<path id="Union" d="M18.7891 17.6899H16.8359C16.8359 14.2219 17.9237 10.7597 20.3301 8.22544C20.7072 7.7291 20.93 7.11628 20.93 6.45315C20.93 4.79823 19.5427 3.45667 17.8313 3.45667C16.1199 3.45667 14.7326 4.79823 14.7326 6.45315C14.7326 7.26963 15.0703 8.00985 15.618 8.5503C13.6823 9.8847 10.0845 13.4615 10.0845 17.9396C10.0845 22.4589 13.7486 24.2885 15.6708 24.6641L8.53516 25.8848V29.4261L27.1274 29.4261V25.8848L19.8225 24.6459C21.7665 24.2322 25.3198 22.3901 25.3198 17.9396C25.3198 15.0256 23.916 12.4279 22.207 10.5392C20.3301 11.9558 18.7891 15.261 18.7891 17.6899Z" fill="#F4F7FA"/>
</g>
</svg>
