<svg width="36" height="35" viewBox="0 0 36 35" fill="none" xmlns="http://www.w3.org/2000/svg">
<g id="Chess Pieces">
<path id="Union" d="M8.89844 4.88777C8.89844 5.35397 8.97599 5.80252 9.11931 6.22206L8.15522 6.65938C7.35597 5.85824 6.23426 5.35995 4.99219 5.35995C2.56515 5.35995 0.597656 7.26254 0.597656 9.60949C0.597656 11.7016 2.16103 13.4406 4.21968 13.7936L6.53516 21.4704C6.58349 21.6307 6.65358 21.784 6.74359 21.9265L8.07812 24.0382L8.06992 24.0396C7.13698 24.1992 6.45703 24.9832 6.45703 25.8994V29.4407C6.45703 30.4838 7.33147 31.3294 8.41016 31.3294L27.0024 31.3294C27.5204 31.3294 28.0172 31.1304 28.3835 30.7762C28.7498 30.422 28.9555 29.9416 28.9555 29.4407V25.8994C28.9555 24.9822 28.2741 24.1976 27.3398 24.0391L27.3005 24.0325L28.6314 21.9265C28.7214 21.784 28.7915 21.6307 28.8398 21.4704L31.1553 13.7936C33.214 13.4406 34.7773 11.7016 34.7773 9.60949C34.7773 7.26254 32.8098 5.35995 30.3828 5.35995C29.1392 5.35995 28.0162 5.8595 27.2168 6.66241L26.2544 6.22586C26.3985 5.80523 26.4766 5.35538 26.4766 4.88777C26.4766 2.54081 24.5091 0.638229 22.082 0.638229C19.655 0.638229 17.6875 2.54081 17.6875 4.88777C17.6875 2.54081 15.72 0.638229 13.293 0.638229C10.8659 0.638229 8.89844 2.54081 8.89844 4.88777Z" fill="#34364C"/>
<path id="Union_2" d="M14.1693 7.09197C15.0847 6.75141 15.7344 5.89295 15.7344 4.88777C15.7344 3.58391 14.6413 2.52692 13.293 2.52692C11.9446 2.52692 10.8516 3.58391 10.8516 4.88777C10.8516 6.09269 11.785 7.08677 12.9908 7.23072L11.902 15.7477L6.65342 11.3396C7.13333 10.9084 7.43359 10.2929 7.43359 9.60949C7.43359 8.30563 6.34054 7.24864 4.99219 7.24864C3.64384 7.24864 2.55078 8.30563 2.55078 9.60949C2.55078 10.9134 3.64384 11.9704 4.99219 11.9704C5.22955 11.9704 5.45899 11.9376 5.67596 11.8765L8.41016 20.9416L11.2376 25.4157L8.41016 25.8994V29.4407L27.0024 29.4407V25.8994L24.1386 25.4137L26.9648 20.9416L29.699 11.8765C29.916 11.9376 30.1455 11.9704 30.3828 11.9704C31.7312 11.9704 32.8242 10.9134 32.8242 9.60949C32.8242 8.30563 31.7312 7.24864 30.3828 7.24864C29.0345 7.24864 27.9414 8.30563 27.9414 9.60949C27.9414 10.2929 28.2417 10.9084 28.7216 11.3396L23.473 15.7477L22.3842 7.23072C23.59 7.08677 24.5234 6.09269 24.5234 4.88777C24.5234 3.58391 23.4304 2.52692 22.082 2.52692C20.7337 2.52692 19.6406 3.58391 19.6406 4.88777C19.6406 5.89295 20.2903 6.75141 21.2057 7.09197L17.6875 14.8034L14.1693 7.09197Z" fill="#F4F7FA"/>
</g>
</svg>
