<svg width="36" height="35" viewBox="0 0 36 35" fill="none" xmlns="http://www.w3.org/2000/svg">
<g id="Chess Pieces">
<path id="Stroke" d="M15.2313 0.390845C15.8743 0.320938 16.5112 0.563421 16.9323 1.03837L20.9172 5.53272C25.4933 6.62626 28.1448 9.95839 29.6112 14.1181C31.1223 18.4044 31.4961 23.846 31.4961 29.4261C31.4961 30.4692 30.6216 31.3148 29.5429 31.3148H11.3325C10.2956 31.3148 9.43939 30.5313 9.38229 29.5301C9.33134 28.6367 9.54391 27.0864 10.1917 25.503L10.2036 25.474C8.3641 26.4288 6.32264 26.2001 4.80717 25.1567C2.96544 23.8887 1.94139 21.4065 3.11138 18.9551C3.95507 17.1874 4.86439 16.2514 5.55228 15.5434C6.19483 14.8821 6.4626 14.5913 6.65204 13.8585C7.8006 9.4159 10.1635 6.85663 12.7011 5.68866C12.6644 5.18254 12.6942 4.69493 12.7584 4.25223C12.9182 3.15027 13.316 2.13194 13.7215 1.3875C14.0231 0.833977 14.5884 0.460752 15.2313 0.390845Z" fill="#34364C"/>
<path id="Union" fill-rule="evenodd" clip-rule="evenodd" d="M19.8606 7.24277L15.4496 2.2677C14.8111 3.43991 14.192 5.50877 15.082 7.00228C14.6501 7.03947 14.2372 7.11013 13.9179 7.23404C11.8808 8.0246 9.64547 10.0671 8.54684 14.3166C8.22872 15.5471 7.65615 16.1364 6.97564 16.8367C6.33373 17.4973 5.59577 18.2568 4.88473 19.7466C3.41989 22.8157 7.37316 25.8848 10.2558 23.0973C11.8765 21.5301 13.2931 20.8831 14.4825 20.3399C16.1943 19.5581 17.4353 18.9913 18.1364 16.2053C18.4699 17.5049 18.3365 20.5718 15.1346 22.4432C11.9328 24.3145 11.2657 28.2565 11.3324 29.4261H29.5429C29.5429 18.3221 28.0227 8.72837 19.8606 7.24277Z" fill="#F4F7FA"/>
<ellipse id="eye" cx="14.4062" cy="12.9001" rx="1.46484" ry="1.41651" fill="#34364C"/>
</g>
</svg>
