<svg width="117" height="80" viewBox="0 0 117 80" fill="none" xmlns="http://www.w3.org/2000/svg">
<g id="Group 22685">
<g id="Vector">
<path d="M31.5637 0.0306373C33.1714 -0.150142 34.7643 0.476919 35.8174 1.70513L45.7822 13.3275C57.2257 16.1554 63.856 24.7723 67.5232 35.5294C71.3019 46.6138 72.2366 60.6856 72.2366 75.1159C72.2366 77.8133 70.0499 80 67.3525 80H21.8138C19.2209 80 17.0799 77.9738 16.9371 75.3848C16.8097 73.0744 17.3412 69.0655 18.9611 64.9708L18.9908 64.8958C14.3909 67.3649 9.28588 66.7735 5.49616 64.0753C0.890579 60.7962 -1.67024 54.3771 1.25553 48.0379C3.36534 43.4667 5.63925 41.046 7.35945 39.2152C8.96626 37.5052 9.63588 36.753 10.1096 34.8581C12.9818 23.3694 18.8907 16.7512 25.2363 13.7308C25.1445 12.422 25.2192 11.161 25.3797 10.0162C25.7793 7.16651 26.7741 4.53311 27.7882 2.60798C28.5422 1.17658 29.956 0.211417 31.5637 0.0306373Z" fill="white"/>
<path fill-rule="evenodd" clip-rule="evenodd" d="M43.1402 17.7497L32.1095 4.88418C30.5128 7.91552 28.9648 13.2656 31.1903 17.1278C30.1101 17.224 29.0778 17.4067 28.2793 17.7271C23.185 19.7715 17.5952 25.0534 14.8479 36.0427C14.0524 39.2248 12.6206 40.7486 10.9189 42.5597C9.31364 44.2681 7.46824 46.2321 5.69014 50.0846C2.02703 58.0213 11.9129 65.9581 19.1215 58.7495C23.1743 54.6967 26.7168 53.0236 29.691 51.6189C33.9718 49.5972 37.0752 48.1315 38.8283 40.9268C39.6623 44.2875 39.3287 52.2186 31.3219 57.0579C23.3151 61.8973 21.647 72.0912 21.8138 75.1158H67.3525C67.3525 46.401 63.5508 21.5915 43.1402 17.7497Z" fill="url(#paint0_linear_630_3566)"/>
<path d="M33.1635 32.3796C33.1635 34.4027 31.5234 36.0427 29.5004 36.0427C27.4773 36.0427 25.8372 34.4027 25.8372 32.3796C25.8372 30.3565 27.4773 28.7165 29.5004 28.7165C31.5234 28.7165 33.1635 30.3565 33.1635 32.3796Z" fill="white"/>
<path d="M85.4362 0.0306373C83.8285 -0.150142 82.2356 0.476919 81.1825 1.70513L71.2177 13.3275C59.7743 16.1554 53.1439 24.7723 49.4767 35.5294C45.698 46.6138 44.7633 60.6856 44.7633 75.1159C44.7633 77.8133 46.95 80 49.6475 80H95.1861C97.779 80 99.92 77.9738 100.063 75.3848C100.19 73.0744 99.6587 69.0655 98.0388 64.9708L98.0091 64.8958C102.609 67.3649 107.714 66.7735 111.504 64.0753C116.109 60.7962 118.67 54.3771 115.744 48.0379C113.635 43.4667 111.361 41.046 109.64 39.2152C108.034 37.5052 107.364 36.753 106.89 34.8581C104.018 23.3694 98.1092 16.7512 91.7636 13.7308C91.8554 12.422 91.7807 11.161 91.6202 10.0162C91.2206 7.16651 90.2258 4.53311 89.2117 2.60798C88.4578 1.17658 87.0439 0.211417 85.4362 0.0306373Z" fill="white"/>
<path fill-rule="evenodd" clip-rule="evenodd" d="M73.8598 17.7497L84.8904 4.88418C86.4872 7.91552 88.0351 13.2656 85.8096 17.1278C86.8898 17.224 87.9221 17.4067 88.7206 17.7271C93.8149 19.7715 99.4047 25.0534 102.152 36.0427C102.948 39.2248 104.379 40.7486 106.081 42.5597C107.686 44.2681 109.532 46.2321 111.31 50.0846C114.973 58.0213 105.087 65.9581 97.8784 58.7495C93.8256 54.6967 90.2831 53.0236 87.3089 51.6189C83.0281 49.5972 79.9247 48.1315 78.1717 40.9268C77.3376 44.2875 77.6712 52.2186 85.678 57.0579C93.6848 61.8973 95.3529 72.0912 95.1861 75.1158H49.6474C49.6474 46.401 53.4492 21.5915 73.8598 17.7497Z" fill="url(#paint1_linear_630_3566)"/>
<path d="M83.8365 32.3796C83.8365 34.4027 85.4765 36.0427 87.4996 36.0427C89.5226 36.0427 91.1627 34.4027 91.1627 32.3796C91.1627 30.3565 89.5226 28.7165 87.4996 28.7165C85.4765 28.7165 83.8365 30.3565 83.8365 32.3796Z" fill="white"/>
</g>
</g>
<defs>
<linearGradient id="paint0_linear_630_3566" x1="58.5" y1="0" x2="58.5" y2="80" gradientUnits="userSpaceOnUse">
<stop stop-color="#60CBFA"/>
<stop offset="0.223958" stop-color="#429FED"/>
<stop offset="0.682292" stop-color="#3681DC"/>
<stop offset="1" stop-color="#409CE7"/>
</linearGradient>
<linearGradient id="paint1_linear_630_3566" x1="58.5" y1="0" x2="58.5" y2="80" gradientUnits="userSpaceOnUse">
<stop stop-color="#60CBFA"/>
<stop offset="0.223958" stop-color="#429FED"/>
<stop offset="0.682292" stop-color="#3681DC"/>
<stop offset="1" stop-color="#409CE7"/>
</linearGradient>
</defs>
</svg>
